# xmcd
#
# Track frame offsets: 
#        150
#        10157
#        23839
#        33846
#        49313
#        65821
#        78252
#        89463
#        114038
#        138966
#        161951
#        188095
#        212517
#        237168
#        259882
#
# Disc length: 3792 seconds
#
# Revision: 3
# Processed by: cddbd v1.5.2PL0 Copyright (c) Steve Scherf et al.
# Submitted via: ExactAudioCopy v1.3
#
DISCID=c20ece0f
DTITLE=Various Artist - Ultimate Male - Volume 2
DYEAR=2004
DGENRE=Rock
TTITLE0=Tom Jones - What’s new pussycat
TTITLE1=Roy Orbison - Oh, pretty woman
TTITLE2=Elvis Presley, with Scotty and Bill - Good rockin’ tonight
TTITLE3=Van Morrison - Brown eyed girl
TTITLE4=Roger Daltrey - No more Mr Nice Guy
TTITLE5=Rod Stewart - Why does it go on
TTITLE6=Eric Clapton - Snake drive
TTITLE7=The Happeneing - Dancehall
TTITLE8=Jesse Joust - Always
TTITLE9=Kenda - Big eyes
TTITLE10=Senders - Prickly
TTITLE11=bothered.com - The drummer
TTITLE12=FYI - Big day
TTITLE13=Stealers - Bits
TTITLE14=Bob Johnson - Contradiction
EXTD=
EXTT0=
EXTT1=
EXTT2=
EXTT3=
EXTT4=
EXTT5=
EXTT6=
EXTT7=
EXTT8=
EXTT9=
EXTT10=
EXTT11=
EXTT12=
EXTT13=
EXTT14=
PLAYORDER=
